<svg xmlns="http://www.w3.org/2000/svg" viewBox="0 0 388.55 158.05">
    <defs>
        <style>
            .cls-1,
            .cls-3,
            .cls-4 {
                fill: #fff;
            }

            .cls-1,
            .cls-2,
            .cls-3,
            .cls-4 {
                stroke: #000;
                stroke-linecap: round;
                stroke-linejoin: round;
            }

            .cls-1 {
                stroke-width: 5px;
            }

            .cls-2 {
                fill: none;
                stroke-width: 3px;
            }

            .cls-3 {
                stroke-width: 5px;
            }

            .cls-4 {
                stroke-width: 5px;
            }
        </style>
    </defs>
    <title>armsGL</title>
    <g id="rockArmsL" data-name="Layer 2">
        <g id="LeftArm">
            <path class="cls-1"
                d="M245.76,64.22H182.59a32.63,32.63,0,0,1,4.62-2.58c-.7-1.69-2.48-2.67-5.93-2.67H35C17,59,2.5,74.68,2.5,94.07S17,129.16,35,129.16H181.28c3.42,0,5.2-1,5.92-2.67a32,32,0,0,1-4.61-2.58h63.17c3.86,0,7.52-2.3,10.79-5.63a34.75,34.75,0,0,0,0-48.43C253.28,66.53,249.62,64.22,245.76,64.22Z" />
            <path class="cls-1"
                d="M171.05,135.31h17.83c4,0,7.25-3.85,7.25-8.6l-.51-2.46a150,150,0,0,1-.14-59.58l.65-3.24c0-4.75-3.25-8.61-7.25-8.61H171.05c-5.4,0-8.17,12.69-8.91,17.32a153.36,153.36,0,0,0,0,47.72C162.83,122.55,165.45,135.31,171.05,135.31Z" />
            <path class="cls-2" d="M190.08,135.16l-2.84-10.91a149.77,149.77,0,0,1-.15-59.58l3-11.76" />
        </g>
        <g id="LeftRock">
            <path id="path32294" class="cls-1"
                d="M314.91,46.89c23.57-13.1,45.08,11.77,26.16,31.86,17.73-1.4,26.45,33.89,3.8,41.84,5,19-15.26,29.82-43.41,33.8a95.48,95.48,0,0,1-22.76.64c-21.13-2.21-38.79-9.66-53.34-26.21-8.56-9.66-9.86-39.06-6.83-52.44C224.66,50.45,258.25,26,281,25.26,304.62,24.47,311.36,43.13,314.91,46.89Z" />
            <path id="path32296"
                d="M341.37,81.48c1.31-.33,3.76-.57,3.32-.6l-1.47-7.6c-2.05,2.39-4.46,3-6.4,4-11.43,5.42-14.34,6.21-25.41,10.49,4.92-.62,12.57,1,30-6.26Z" />
            <path id="path32298"
                d="M348.15,121.67c-2.72-3.09-3.28-3.75-3.28-3.74-8.88,2.29-23.84,7.25-29.71,8.86,9,.73,22.34-2.07,33-5.12Z" />
            <path id="path32306"
                d="M316.42,43.54,316.3,49c-27.86,7.27-33.09-1.73-46.44-8,12.69,3.8,22.86,10.3,46.56,2.54Z" />
        </g>
    </g>
</svg>