<svg xmlns="http://www.w3.org/2000/svg" viewBox="0 0 388.55 158.05">
    <defs>
        <style>
            .cls-1,
            .cls-3,
            .cls-4 {
                fill: #fff;
            }

            .cls-1,
            .cls-2,
            .cls-3,
            .cls-4 {
                stroke: #000;
                stroke-linecap: round;
                stroke-linejoin: round;
            }

            .cls-1 {
                stroke-width: 5px;
            }

            .cls-2 {
                fill: none;
                stroke-width: 3px;
            }

            .cls-3 {
                stroke-width: 5px;
            }

            .cls-4 {
                stroke-width: 5px;
            }
        </style>
    </defs>
    <title>armsGL</title>
    <g id="paperArmsL" data-name="Layer 2">
        <g id="LeftArm">
            <path class="cls-1"
                d="M245.76,64.22H182.59a32.63,32.63,0,0,1,4.62-2.58c-.7-1.69-2.48-2.67-5.93-2.67H35C17,59,2.5,74.68,2.5,94.07S17,129.16,35,129.16H181.28c3.42,0,5.2-1,5.92-2.67a32,32,0,0,1-4.61-2.58h63.17c3.86,0,7.52-2.3,10.79-5.63a34.75,34.75,0,0,0,0-48.43C253.28,66.53,249.62,64.22,245.76,64.22Z" />
            <path class="cls-1"
                d="M171.05,135.31h17.83c4,0,7.25-3.85,7.25-8.6l-.51-2.46a150,150,0,0,1-.14-59.58l.65-3.24c0-4.75-3.25-8.61-7.25-8.61H171.05c-5.4,0-8.17,12.69-8.91,17.32a153.36,153.36,0,0,0,0,47.72C162.83,122.55,165.45,135.31,171.05,135.31Z" />
            <path class="cls-2" d="M190.08,135.16l-2.84-10.91a149.77,149.77,0,0,1-.15-59.58l3-11.76" />
        </g>
        <g id="LeftPaper">
            <path id="path3112-2-8-6-8-2-9-8" class="cls-3"
                d="M266.21,3.23C256.12-1.3,250.8,16,248.21,34.89c-1,7.32-24.77,22.72-29.82,40-3.29,11.22-3.06,36.29,3.84,44.8,11.81,14.58,26.49,21.55,44.36,24.18a80.74,80.74,0,0,0,19.36.28c19.2-2.06,66.74,12.87,71.61,11.33,13.54-4.29,4.77-19.78-4.19-22.68-4.34-1.41-35-15.46-29.26-15.82,14.06-.87,31.09-.23,47.15,1.29,24,2.28,16.46-30.76-6.05-32.66-10.55-.89-19.25-2.88-42.83-4.32,12.45-4.45,30.31-11.79,42.75-14.55,20.53-4.56,6.75-33.66-18.23-27.56-17,4.15-46.84,15-76.74,14.89,9.13-12,26.49-37.16-4-50.8Z" />
            <path id="path3882-6-1-33-9-9-7-9"
                d="M322.76,78.47c-15.39,4.46-22.28,10.27-25.82,12.47,9.58-3,11.93-4.08,22.39-6.57a22.15,22.15,0,0,1,6.55-.45Z" />
            <path id="path3884-6-1-2-9-6-6-0"
                d="M323.9,114.45c-9.38.59-20.55,3.56-27.43,7.4,5.12-.4,13.9-1.16,21.67-1.92a9.59,9.59,0,0,1,6.57,1.75c-.77-2.34-.69-4.79-.81-7.23Z" />
        </g>
    </g>
</svg>