<svg xmlns="http://www.w3.org/2000/svg" viewBox="0 0 388.55 158.05">
    <defs>
        <style>
            .cls-1,
            .cls-3,
            .cls-4 {
                fill: #fff;
            }

            .cls-1,
            .cls-2,
            .cls-3,
            .cls-4 {
                stroke: #000;
                stroke-linecap: round;
                stroke-linejoin: round;
            }

            .cls-1 {
                stroke-width: 5px;
            }

            .cls-2 {
                fill: none;
                stroke-width: 3px;
            }

            .cls-3 {
                stroke-width: 5px;
            }

            .cls-4 {
                stroke-width: 5px;
            }
        </style>
    </defs>
    <title>armsGL</title>
    <g id="sccisorsArmsL" data-name="Layer 2">
        <g id="LeftArm">
            <path class="cls-1"
                d="M245.76,64.22H182.59a32.63,32.63,0,0,1,4.62-2.58c-.7-1.69-2.48-2.67-5.93-2.67H35C17,59,2.5,74.68,2.5,94.07S17,129.16,35,129.16H181.28c3.42,0,5.2-1,5.92-2.67a32,32,0,0,1-4.61-2.58h63.17c3.86,0,7.52-2.3,10.79-5.63a34.75,34.75,0,0,0,0-48.43C253.28,66.53,249.62,64.22,245.76,64.22Z" />
            <path class="cls-1"
                d="M171.05,135.31h17.83c4,0,7.25-3.85,7.25-8.6l-.51-2.46a150,150,0,0,1-.14-59.58l.65-3.24c0-4.75-3.25-8.61-7.25-8.61H171.05c-5.4,0-8.17,12.69-8.91,17.32a153.36,153.36,0,0,0,0,47.72C162.83,122.55,165.45,135.31,171.05,135.31Z" />
            <path class="cls-2" d="M190.08,135.16l-2.84-10.91a149.77,149.77,0,0,1-.15-59.58l3-11.76" />
        </g>
        <g id="LeftSccisors">
            <path id="imagebot_17" data-name="imagebot 17" class="cls-4"
                d="M275.57,34.37c-19.33-.87-49.45,17.57-56.39,39.14-3.46,11.14-4.34,36.15,2.27,44.91,11.22,15,25.7,22.51,43.45,25.8a80.5,80.5,0,0,0,19.34,1c21.61-1.79,34.16-18.57,39.07-25.73,14.1-.36,31.1.91,47.08,3,23.92,3.16,17.59-30.14-4.85-32.87-10.5-1.28-19.12-3.58-42.64-5.89,12.62-4,30.73-10.67,43.27-13,20.68-3.79,8-33.38-17.21-28.21-17.15,3.52-29.75,9-46.1,12.42-2.75-3.43-7.21-19.7-27.29-20.62Z" />
            <path id="imagebot_16" data-name="imagebot 16"
                d="M323.36,81c-15.55,3.89-22.64,9.44-26.31,11.51,9.72-2.7,12.11-3.64,22.66-5.74a21.8,21.8,0,0,1,6.56-.21Z" />
            <path id="imagebot_15" data-name="imagebot 15"
                d="M323.17,117c-9.41.25-20.67,2.79-27.68,6.38,10.18-.47,18.21-.85,27.9-1.53,0,0-.21-2.41-.23-4.85Z" />
            <path id="imagebot_11" data-name="imagebot 11"
                d="M304,52.17c-20.61,5-28.79-1.21-39.3-5.28,10.9,6.23,14.67,14.81,38.77,10.52l.53-5.24Z" />
        </g>
    </g>
</svg>