<svg xmlns="http://www.w3.org/2000/svg" viewBox="0 0 3087.49 657.52">
    <defs>
        <style>
            .tp, .op1, .kp, .ep, .pp, .op2 {
                fill: #fff;
            }
        </style>
    </defs>
    <title>tokenpo</title>

            <path class="tp"
                d="M134.24,154.76H71.82a58.63,58.63,0,0,1-26.5-6.41,88.49,88.49,0,0,1-23.09-16.68A80.51,80.51,0,0,1,6,108.59,60.06,60.06,0,0,1,0,82.94a74.6,74.6,0,0,1,6-29.5A75.83,75.83,0,0,1,22.23,29.07,80.75,80.75,0,0,1,45.32,12.83a62,62,0,0,1,26.5-6H345.43a64.9,64.9,0,0,1,26.93,6,78.87,78.87,0,0,1,23.52,16.24,76,76,0,0,1,16.24,24.37,74.77,74.77,0,0,1,6,29.5,60.21,60.21,0,0,1-6,25.65,80.7,80.7,0,0,1-16.24,23.08,86,86,0,0,1-23.52,16.68,61.35,61.35,0,0,1-26.93,6.41H282.16V581.42q0,32.51-21.38,51.3t-52.15,18.81q-30.78,0-52.59-18.81t-21.8-51.3Z" />
            <path class="op1"
                d="M386.47,328.33q0-67.53,25.66-127.4T481.81,96.62q44-44.45,103.46-70.54T712.24,0q67.53,0,127,26.08T942.67,96.62q44,44.46,69.68,104.31T1038,328.33q0,67.56-25.66,127.4T942.67,560.47q-44,44.89-103.46,71t-127,26.08q-67.56,0-127-26.08t-103.46-71q-44.06-44.88-69.68-104.74T386.47,328.33Zm147.92,0A175.11,175.11,0,0,0,548.5,398,180.75,180.75,0,0,0,587,455.3a183.54,183.54,0,0,0,56.43,38.48,169.07,169.07,0,0,0,68.83,14.11,172.17,172.17,0,0,0,69.26-14.11,182.41,182.41,0,0,0,56.86-38.48,175.25,175.25,0,0,0,38-57.28,184.33,184.33,0,0,0,0-139.37,175.4,175.4,0,0,0-38-57.29,188.51,188.51,0,0,0-56.86-38.9,167.75,167.75,0,0,0-69.26-14.54,164.73,164.73,0,0,0-68.83,14.54A189.8,189.8,0,0,0,587,201.36a180.91,180.91,0,0,0-38.48,57.29A175.16,175.16,0,0,0,534.39,328.33Z" />
            <path class="kp"
                d="M1097.85,76.1q0-30.78,21.8-51.73t52.59-21q30.78,0,52.15,21t21.38,51.73V236L1366.33,37.62Q1387.69,3.43,1427,3.42q20.52,0,40.18,11.12a81.06,81.06,0,0,1,26.51,27.36,67.34,67.34,0,0,1,9.4,34.2q0,22.25-12.82,38.47L1359.49,328.33l131.67,209.48a94.77,94.77,0,0,1,8.55,18.81,62.16,62.16,0,0,1,3.42,19.67,71.18,71.18,0,0,1-9.4,35.48,79.54,79.54,0,0,1-26.51,27.79,76.8,76.8,0,0,1-19.66,8.12,79.71,79.71,0,0,1-20.52,3,77.07,77.07,0,0,1-35.06-8.13q-16.24-8.12-26.5-25.22L1245.77,420.67V578.85q0,30.78-21.38,51.73t-52.15,20.95q-30.78,0-52.59-20.95t-21.8-51.73ZM1216.7,371.94a4.87,4.87,0,0,0,1.71,3.42Z" />
            <path class="ep"
                d="M1719.45,399.3V500.19h145.36q31.62,0,52.58,21.8t20.95,52.59q0,30.78-20.95,52.16t-52.58,21.37H1645.06q-30.78,0-52.15-21.8t-21.38-52.59V81.23q0-31.62,21.38-53t52.15-21.38h219.75q31.62,0,52.58,21.38t20.95,52.15q0,30.78-20.95,52.59t-52.58,21.8H1719.45v96.62h145.36q31.62,0,52.58,21.37t20.95,52.16q0,31.65-20.95,53t-52.58,21.38Z" />
            <path class="pp"
                d="M2006.74,82.08q0-32.47,20.52-53.86t53.86-21.38h128.26q41.88,0,77.38,15.39a185.19,185.19,0,0,1,61.13,42.32,191.79,191.79,0,0,1,39.76,62.85q14.11,35.91,14.11,77.81t-14.11,78.66a199.25,199.25,0,0,1-39.76,64.55A184.26,184.26,0,0,1,2286.76,392q-35.49,15.83-77.38,15.82h-54.72V574.58q0,31.63-22.23,54.29t-53.87,22.66a65,65,0,0,1-28.65-6.41,75.85,75.85,0,0,1-23.08-17.1,72.94,72.94,0,0,1-15-24.8,83.16,83.16,0,0,1-5.13-28.64Zm147.92,72.68V259.93h54.72q12.82,0,21.37-6a49.35,49.35,0,0,0,13.68-14.1,55.79,55.79,0,0,0,7.27-17.53,78.09,78.09,0,0,0,2.14-17.1,64.38,64.38,0,0,0-2.14-15.39,51.93,51.93,0,0,0-7.27-16.25,47,47,0,0,0-13.68-13.25q-8.55-5.55-21.37-5.56Z" />
            <path class="op2"
                d="M2436,328.33q0-67.53,25.65-127.4t69.69-104.31q44-44.45,103.46-70.54T2761.72,0q67.53,0,127,26.08t103.46,70.54q44,44.46,69.68,104.31t25.66,127.4q0,67.56-25.66,127.4t-69.68,104.74q-44,44.89-103.46,71t-127,26.08q-67.56,0-127-26.08t-103.46-71q-44.05-44.88-69.69-104.74T2436,328.33Zm147.92,0A175.11,175.11,0,0,0,2598,398a180.75,180.75,0,0,0,38.48,57.28,183.54,183.54,0,0,0,56.43,38.48,169.1,169.1,0,0,0,68.83,14.11A172.17,172.17,0,0,0,2831,493.78a182.41,182.41,0,0,0,56.86-38.48,175.07,175.07,0,0,0,38-57.28,184.2,184.2,0,0,0,0-139.37,175.22,175.22,0,0,0-38-57.29,188.51,188.51,0,0,0-56.86-38.9,167.75,167.75,0,0,0-69.26-14.54,164.76,164.76,0,0,0-68.83,14.54,189.8,189.8,0,0,0-56.43,38.9A180.91,180.91,0,0,0,2598,258.65,175.16,175.16,0,0,0,2583.87,328.33Z" />
</svg>