<svg xmlns="http://www.w3.org/2000/svg" viewBox="0 0 246.94 500"><defs><style>.cls-1{fill:#fff;}</style></defs><title>logovert_1</title><g id="Layer_2" data-name="Layer 2"><g id="Layer_57" data-name="Layer 57"><path class="cls-1" d="M31.2,36H16.69a13.54,13.54,0,0,1-6.16-1.49A20.35,20.35,0,0,1,5.17,30.6a18.81,18.81,0,0,1-3.78-5.37,13.91,13.91,0,0,1-1.39-6,17.3,17.3,0,0,1,1.39-6.85A17.67,17.67,0,0,1,5.17,6.76,18.77,18.77,0,0,1,10.53,3a14.53,14.53,0,0,1,6.16-1.39H80.27A15.18,15.18,0,0,1,86.53,3,18.47,18.47,0,0,1,92,6.76a17.64,17.64,0,0,1,3.77,5.66,17.3,17.3,0,0,1,1.39,6.85,13.91,13.91,0,0,1-1.39,6A18.78,18.78,0,0,1,92,30.6a20,20,0,0,1-5.47,3.87A14.14,14.14,0,0,1,80.27,36H65.57v99.15q0,7.56-5,11.92a17.67,17.67,0,0,1-12.12,4.38A18.05,18.05,0,0,1,36.26,147q-5.07-4.36-5.06-11.92Z"/><path class="cls-1" d="M95.54,76.3a74.32,74.32,0,0,1,6-29.61A76.4,76.4,0,0,1,141.73,6.06a74.88,74.88,0,0,1,59,0A76.4,76.4,0,0,1,241,46.69a74.32,74.32,0,0,1,6,29.61,74.23,74.23,0,0,1-6,29.6,78.44,78.44,0,0,1-16.19,24.34,76.3,76.3,0,0,1-24,16.5,74.88,74.88,0,0,1-59,0,76.18,76.18,0,0,1-24-16.5A78.44,78.44,0,0,1,101.5,105.9,74.23,74.23,0,0,1,95.54,76.3Zm34.37,0a40.74,40.74,0,0,0,3.28,16.19,42.12,42.12,0,0,0,8.94,13.31,42.75,42.75,0,0,0,13.12,9,39.3,39.3,0,0,0,16,3.27,40,40,0,0,0,16.09-3.27,42.37,42.37,0,0,0,13.22-9,40.72,40.72,0,0,0,8.84-13.31,42.8,42.8,0,0,0,0-32.38,40.87,40.87,0,0,0-8.84-13.32,44,44,0,0,0-13.22-9,39,39,0,0,0-16.09-3.38,38.25,38.25,0,0,0-16,3.38,44.46,44.46,0,0,0-13.12,9,42.28,42.28,0,0,0-8.94,13.32A40.74,40.74,0,0,0,129.91,76.3Z"/><path class="cls-1" d="M1.49,191.29a16,16,0,0,1,5.07-12,17,17,0,0,1,12.22-4.86,16.69,16.69,0,0,1,12.12,4.86,16.19,16.19,0,0,1,5,12v37.15l28-46.1A15.74,15.74,0,0,1,78,174.4a17.64,17.64,0,0,1,15.5,8.94,15.69,15.69,0,0,1,2.18,7.95,14,14,0,0,1-3,8.94L62.29,249.9l30.6,48.68a22.37,22.37,0,0,1,2,4.37,14.75,14.75,0,0,1,.79,4.57,16.61,16.61,0,0,1-2.18,8.25,18.62,18.62,0,0,1-6.16,6.46,18,18,0,0,1-4.57,1.88,18.28,18.28,0,0,1-4.77.7,18,18,0,0,1-8.15-1.89,14.92,14.92,0,0,1-6.16-5.86l-27.82-45.7v36.76a16.17,16.17,0,0,1-5,12A16.66,16.66,0,0,1,18.78,325a17,17,0,0,1-12.22-4.87,16,16,0,0,1-5.07-12ZM29.11,260a1.14,1.14,0,0,0,.4.8Z"/><path class="cls-1" d="M163,266.39v23.45h33.78A16.26,16.26,0,0,1,209,294.9a17,17,0,0,1,4.87,12.22A16.63,16.63,0,0,1,209,319.24a16.37,16.37,0,0,1-12.22,5H145.71a16.35,16.35,0,0,1-12.12-5.06,16.85,16.85,0,0,1-5-12.22V192.48a16.74,16.74,0,0,1,5-12.32,16.49,16.49,0,0,1,12.12-5h51.06a16.4,16.4,0,0,1,12.22,5,16.64,16.64,0,0,1,4.87,12.12A17,17,0,0,1,209,204.5a16.23,16.23,0,0,1-12.22,5.07H163V232h33.78A16.4,16.4,0,0,1,209,237a16.64,16.64,0,0,1,4.87,12.12A16.85,16.85,0,0,1,209,261.42a16.37,16.37,0,0,1-12.22,5Z"/><path class="cls-1" d="M2.68,366.28a17.36,17.36,0,0,1,4.77-12.52q4.77-5,12.52-5h29.8a44.75,44.75,0,0,1,18,3.58A42.8,42.8,0,0,1,82,362.21a44.37,44.37,0,0,1,9.24,14.6,48.91,48.91,0,0,1,3.28,18.08,50.47,50.47,0,0,1-3.28,18.28,46.06,46.06,0,0,1-9.24,15,42.73,42.73,0,0,1-14.21,10.14,43.64,43.64,0,0,1-18,3.67H37.06v38.75a17.37,17.37,0,0,1-5.17,12.61,16.87,16.87,0,0,1-12.52,5.27,15.1,15.1,0,0,1-6.65-1.49,17.61,17.61,0,0,1-5.37-4,17.17,17.17,0,0,1-3.48-5.77,19.4,19.4,0,0,1-1.19-6.65Zm34.38,16.89v24.44H49.77a8.52,8.52,0,0,0,5-1.39,11.64,11.64,0,0,0,3.18-3.28,13.06,13.06,0,0,0,1.69-4.08,18.09,18.09,0,0,0,.5-4,15,15,0,0,0-.5-3.58,12.12,12.12,0,0,0-1.69-3.77,11,11,0,0,0-3.18-3.08,9,9,0,0,0-5-1.29Z"/><path class="cls-1" d="M95.54,423.5a74.23,74.23,0,0,1,6-29.6,76.46,76.46,0,0,1,40.23-40.64,74.88,74.88,0,0,1,59,0A76.46,76.46,0,0,1,241,393.9a76.51,76.51,0,0,1,0,59.21,78.67,78.67,0,0,1-16.19,24.34,76.43,76.43,0,0,1-24,16.49,74.88,74.88,0,0,1-59,0,76.32,76.32,0,0,1-24-16.49,78.67,78.67,0,0,1-16.19-24.34A74.25,74.25,0,0,1,95.54,423.5Zm34.37,0a40.79,40.79,0,0,0,3.28,16.2A42.23,42.23,0,0,0,142.13,453,42.89,42.89,0,0,0,155.25,462a39.14,39.14,0,0,0,16,3.28A39.89,39.89,0,0,0,187.33,462,42.52,42.52,0,0,0,200.55,453a40.82,40.82,0,0,0,8.84-13.31,42.83,42.83,0,0,0,0-32.39A40.72,40.72,0,0,0,200.55,394a43.67,43.67,0,0,0-13.22-9,39,39,0,0,0-16.09-3.38,38.25,38.25,0,0,0-16,3.38,44.09,44.09,0,0,0-13.12,9,42.12,42.12,0,0,0-8.94,13.31A40.78,40.78,0,0,0,129.91,423.5Z"/><path class="cls-1" d="M95.54,76.3a74.32,74.32,0,0,1,6-29.61A76.4,76.4,0,0,1,141.73,6.06a74.88,74.88,0,0,1,59,0A76.4,76.4,0,0,1,241,46.69a74.32,74.32,0,0,1,6,29.61,74.23,74.23,0,0,1-6,29.6,78.44,78.44,0,0,1-16.19,24.34,76.3,76.3,0,0,1-24,16.5,74.88,74.88,0,0,1-59,0,76.18,76.18,0,0,1-24-16.5A78.44,78.44,0,0,1,101.5,105.9,74.23,74.23,0,0,1,95.54,76.3Zm34.37,0a40.74,40.74,0,0,0,3.28,16.19,42.12,42.12,0,0,0,8.94,13.31,42.75,42.75,0,0,0,13.12,9,39.3,39.3,0,0,0,16,3.27,40,40,0,0,0,16.09-3.27,42.37,42.37,0,0,0,13.22-9,40.72,40.72,0,0,0,8.84-13.31,42.8,42.8,0,0,0,0-32.38,40.87,40.87,0,0,0-8.84-13.32,44,44,0,0,0-13.22-9,39,39,0,0,0-16.09-3.38,38.25,38.25,0,0,0-16,3.38,44.46,44.46,0,0,0-13.12,9,42.28,42.28,0,0,0-8.94,13.32A40.74,40.74,0,0,0,129.91,76.3Z"/></g></g></svg>